<svg xmlns="http://www.w3.org/2000/svg" width="2400" height="1350" viewBox="0 0 2400 1350" role="img" aria-label="DNA helix made of secure data blocks">
  <defs>
    <linearGradient id="g0" x1="0" y1="0" x2="1" y2="1">
      <stop offset="0" stop-color="#05070c"/>
      <stop offset="1" stop-color="#0b1020"/>
    </linearGradient>
    <radialGradient id="goldGlow" cx="30%" cy="24%" r="70%">
      <stop offset="0" stop-color="rgba(212,175,55,.26)"/>
      <stop offset="0.55" stop-color="rgba(212,175,55,.08)"/>
      <stop offset="1" stop-color="rgba(212,175,55,0)"/>
    </radialGradient>
    <radialGradient id="blueGlow" cx="80%" cy="18%" r="70%">
      <stop offset="0" stop-color="rgba(120,220,255,.10)"/>
      <stop offset="1" stop-color="rgba(120,180,255,0)"/>
    </radialGradient>
    <filter id="blur" x="-20%" y="-20%" width="140%" height="140%">
      <feGaussianBlur stdDeviation="8"/>
    </filter>
  </defs>

  <rect width="2400" height="1350" fill="url(#g0)"/>
  <rect width="2400" height="1350" fill="url(#goldGlow)"/>
  <rect width="2400" height="1350" fill="url(#blueGlow)"/>

  <g opacity="0.8"><path d="M 764.4 788.9 Q 1713.8 974.1 2059.4 1435.4" stroke="rgba(243,210,122,0.062)" stroke-width="1.03" fill="none"/><path d="M 1050.0 210.7 Q 1332.2 186.1 2099.4 268.9" stroke="rgba(243,210,122,0.061)" stroke-width="2.05" fill="none"/><path d="M 550.2 207.9 Q 1331.9 314.2 1547.2 462.3" stroke="rgba(243,210,122,0.069)" stroke-width="2.14" fill="none"/><path d="M 901.7 109.8 Q 687.2 832.9 -114.3 1318.9" stroke="rgba(243,210,122,0.066)" stroke-width="1.04" fill="none"/><path d="M 1578.2 181.5 Q 1633.2 104.8 2170.9 17.9" stroke="rgba(243,210,122,0.069)" stroke-width="1.69" fill="none"/><path d="M 2047.6 331.2 Q 2384.3 458.5 2138.4 851.1" stroke="rgba(243,210,122,0.131)" stroke-width="1.89" fill="none"/><path d="M 1386.6 804.6 Q 1138.2 578.1 635.0 -50.7" stroke="rgba(243,210,122,0.135)" stroke-width="1.29" fill="none"/><path d="M 1679.5 1252.8 Q 782.3 1319.2 84.4 1207.5" stroke="rgba(243,210,122,0.114)" stroke-width="1.04" fill="none"/><path d="M 1789.4 -5.8 Q 1664.3 539.5 847.5 1015.7" stroke="rgba(243,210,122,0.071)" stroke-width="1.75" fill="none"/><path d="M 171.7 571.0 Q 460.1 442.8 655.6 369.7" stroke="rgba(243,210,122,0.120)" stroke-width="1.74" fill="none"/><path d="M 1023.9 108.3 Q 1083.5 501.3 891.5 638.9" stroke="rgba(243,210,122,0.097)" stroke-width="1.83" fill="none"/><path d="M 2391.5 339.9 Q 1605.3 306.2 758.8 186.0" stroke="rgba(243,210,122,0.138)" stroke-width="1.47" fill="none"/><path d="M 1808.6 621.6 Q 2217.5 637.8 1936.8 399.6" stroke="rgba(243,210,122,0.085)" stroke-width="2.02" fill="none"/><path d="M -197.5 689.1 Q 876.3 421.4 1977.6 60.8" stroke="rgba(243,210,122,0.071)" stroke-width="1.93" fill="none"/></g>
  <g><circle cx="1920.9" cy="951.6" r="3.3" fill="rgba(212,175,55,0.088)"/><circle cx="1764.6" cy="950.2" r="5.3" fill="rgba(212,175,55,0.098)"/><circle cx="2230.4" cy="767.2" r="2.7" fill="rgba(212,175,55,0.051)"/><circle cx="768.4" cy="277.8" r="2.3" fill="rgba(212,175,55,0.103)"/><circle cx="2090.4" cy="683.8" r="5.1" fill="rgba(212,175,55,0.093)"/><circle cx="891.6" cy="405.1" r="2.0" fill="rgba(212,175,55,0.112)"/><circle cx="272.6" cy="1070.9" r="2.2" fill="rgba(212,175,55,0.113)"/><circle cx="1167.2" cy="134.4" r="5.1" fill="rgba(212,175,55,0.100)"/><circle cx="2345.0" cy="61.6" r="5.7" fill="rgba(212,175,55,0.064)"/><circle cx="1404.3" cy="1201.4" r="3.9" fill="rgba(212,175,55,0.123)"/><circle cx="2264.1" cy="65.3" r="5.3" fill="rgba(212,175,55,0.076)"/><circle cx="435.0" cy="43.2" r="5.9" fill="rgba(212,175,55,0.127)"/><circle cx="1773.3" cy="1232.4" r="5.3" fill="rgba(212,175,55,0.105)"/><circle cx="338.8" cy="645.7" r="6.0" fill="rgba(212,175,55,0.077)"/><circle cx="1347.8" cy="1030.6" r="2.1" fill="rgba(212,175,55,0.061)"/><circle cx="869.4" cy="1182.2" r="4.8" fill="rgba(212,175,55,0.125)"/><circle cx="84.1" cy="1323.0" r="3.9" fill="rgba(212,175,55,0.122)"/><circle cx="422.9" cy="471.6" r="5.8" fill="rgba(212,175,55,0.111)"/><circle cx="486.5" cy="123.1" r="2.2" fill="rgba(212,175,55,0.101)"/><circle cx="190.0" cy="1143.1" r="4.1" fill="rgba(212,175,55,0.081)"/><circle cx="931.9" cy="1168.8" r="4.0" fill="rgba(212,175,55,0.126)"/><circle cx="742.5" cy="82.3" r="3.7" fill="rgba(212,175,55,0.108)"/><circle cx="1747.3" cy="592.4" r="2.6" fill="rgba(212,175,55,0.132)"/><circle cx="108.2" cy="1306.5" r="5.5" fill="rgba(212,175,55,0.133)"/><circle cx="13.9" cy="914.1" r="5.9" fill="rgba(212,175,55,0.134)"/><circle cx="104.9" cy="48.3" r="3.3" fill="rgba(212,175,55,0.122)"/><circle cx="2103.3" cy="1313.2" r="5.6" fill="rgba(212,175,55,0.096)"/><circle cx="1061.3" cy="181.6" r="2.5" fill="rgba(212,175,55,0.110)"/><circle cx="1730.7" cy="1252.7" r="4.9" fill="rgba(212,175,55,0.083)"/><circle cx="1828.9" cy="563.2" r="3.8" fill="rgba(212,175,55,0.067)"/><circle cx="1347.3" cy="578.9" r="3.7" fill="rgba(212,175,55,0.070)"/><circle cx="439.1" cy="1146.0" r="5.5" fill="rgba(212,175,55,0.082)"/><circle cx="2029.8" cy="1142.6" r="4.9" fill="rgba(212,175,55,0.131)"/><circle cx="123.1" cy="319.3" r="3.1" fill="rgba(212,175,55,0.091)"/><circle cx="1244.5" cy="324.9" r="5.6" fill="rgba(212,175,55,0.091)"/><circle cx="2012.3" cy="529.7" r="3.5" fill="rgba(212,175,55,0.116)"/><circle cx="1719.1" cy="1326.3" r="2.7" fill="rgba(212,175,55,0.129)"/><circle cx="402.0" cy="532.3" r="2.9" fill="rgba(212,175,55,0.109)"/></g>

  <g filter="url(#blur)" opacity="0.9">
    <circle cx="1752.0" cy="621.0" r="210" fill="rgba(255,255,255,.04)"/>
  </g>

  <g><circle cx="1752.0" cy="621.0" r="160" fill="none" stroke="rgba(212,175,55,0.180)" stroke-width="1.2"/><circle cx="1752.0" cy="621.0" r="215" fill="none" stroke="rgba(212,175,55,0.150)" stroke-width="1.2"/><circle cx="1752.0" cy="621.0" r="270" fill="none" stroke="rgba(212,175,55,0.120)" stroke-width="1.2"/><circle cx="1752.0" cy="621.0" r="325" fill="none" stroke="rgba(212,175,55,0.090)" stroke-width="1.2"/></g>

  <g>
    <rect x="1562.0" y="555.0" width="380" height="132" rx="26" fill="rgba(255,255,255,.05)" stroke="rgba(255,255,255,.10)"/>
    <text x="1752.0" y="613.0" text-anchor="middle" font-family="ui-sans-serif,system-ui" font-size="50" fill="rgba(245,247,255,.92)" letter-spacing="2">W3</text>
    <text x="1752.0" y="655.0" text-anchor="middle" font-family="ui-sans-serif,system-ui" font-size="22" fill="rgba(245,247,255,.60)" letter-spacing="1">w3.health</text>
  </g>

  <g opacity="0.9">
    <circle cx="432.0" cy="1053.0" r="280" fill="rgba(212,175,55,.06)"/>
    <circle cx="432.0" cy="1053.0" r="279" fill="none" stroke="rgba(255,255,255,.06)"/>
  </g>
</svg>